<svg width="755" height="275" viewBox="0 0 755 275" fill="none" xmlns="http://www.w3.org/2000/svg">
<rect width="755" height="275" rx="30" fill="#FBFBE4"/>
<path d="M95.2949 137.197V132.877C95.2949 125.316 93.8034 119.299 90.8203 114.824C87.8372 110.35 83.877 108.112 78.9395 108.112H78.2451L77.4736 108.189C75.1592 108.189 72.6647 108.858 69.9902 110.195C67.3672 111.533 65.1813 113.59 63.4326 116.367C61.6839 119.145 60.8096 125.471 60.8096 135.346V144.141C60.8096 151.804 61.5553 156.742 63.0469 158.953C65.5671 162.708 69.4759 164.585 74.7734 164.585H76.2393C81.7425 164.585 86.2943 162.142 89.8945 157.256C93.4948 152.318 95.2949 145.632 95.2949 137.197ZM50.4717 207.171C44.4541 207.171 41.4453 205.011 41.4453 200.69C41.4453 199.302 41.8311 197.424 42.6025 195.059C43.374 192.744 43.8883 190.661 44.1455 188.81C44.4027 187.009 44.7113 181.763 45.0713 173.071C45.4313 164.328 45.6113 155.636 45.6113 146.995V123.079C45.6113 117.627 45.1742 113.461 44.2998 110.581C43.4255 107.649 42.9883 105.772 42.9883 104.949C42.9883 102.172 46.1771 100.783 52.5547 100.783C53.2233 100.783 54.5091 100.963 56.4121 101.323L58.7266 101.863C61.1953 102.275 62.9183 102.48 63.8955 102.48C64.8727 102.48 67.4443 101.735 71.6104 100.243C75.7764 98.7516 79.4795 98.0059 82.7197 98.0059H86.2686C90.0231 98.0059 93.6491 99.0345 97.1465 101.092C100.644 103.098 103.447 105.541 105.556 108.421C109.979 114.541 112.19 121.896 112.19 130.485V134.343C112.19 140.052 111.213 145.529 109.259 150.775C103.858 165.331 92.8262 173.02 76.1621 173.843C71.4303 174.049 67.8558 174.846 65.4385 176.234C63.0212 177.623 61.8125 180.195 61.8125 183.949C61.8125 185.286 62.1725 187.395 62.8926 190.275C63.6126 193.156 63.9727 195.29 63.9727 196.679C63.9727 199.765 62.6868 202.285 60.1152 204.239C57.5951 206.194 54.3805 207.171 50.4717 207.171ZM165.809 114.053C160.974 114.053 157.219 116.47 154.545 121.305C151.87 126.088 150.533 133.417 150.533 143.292C150.533 147.664 150.713 150.775 151.073 152.627C151.433 154.427 151.973 156.69 152.693 159.416C153.465 162.09 153.851 164.431 153.851 166.437C153.851 168.391 152.668 170.191 150.302 171.837C147.936 173.483 144.85 174.306 141.044 174.306L139.732 174.229H138.344C135.875 174.229 133.818 173.534 132.172 172.146C130.577 170.757 129.78 169.188 129.78 167.439V166.205C129.78 165.845 130.269 164.148 131.246 161.113C132.223 158.079 132.789 155.147 132.943 152.318C133.098 149.49 133.175 145.684 133.175 140.9V132.337L133.098 130.948C133.098 130.022 133.098 129.097 133.098 128.171L132.943 124.005C132.892 123.079 132.866 121.279 132.866 118.604C132.866 115.879 132.378 113.307 131.4 110.89C130.475 108.421 130.012 106.826 130.012 106.106C130.012 103.021 132.712 101.478 138.112 101.478C143.513 101.478 147.422 102.943 149.839 105.875C150.559 106.749 151.305 107.187 152.076 107.187C152.899 107.187 154.236 106.544 156.088 105.258C161.231 101.76 165.551 100.012 169.049 100.012H170.283C173.369 100.012 175.709 100.706 177.304 102.095C178.95 103.483 179.772 105.335 179.772 107.649C179.772 112.227 177.227 114.516 172.135 114.516C170.129 114.207 168.02 114.053 165.809 114.053ZM223.516 166.051H225.059C230.253 166.051 234.522 163.762 237.865 159.185C241.208 154.607 242.88 148.821 242.88 141.826L243.034 140.129L243.111 137.506V134.034C243.111 126.371 241.543 120.07 238.405 115.133C235.319 110.144 231.179 107.649 225.984 107.649H224.441C219.35 107.649 215.055 110.17 211.558 115.21C208.112 120.25 206.389 126.937 206.389 135.269V140.515C206.492 141.749 206.543 142.598 206.543 143.061C206.543 148.924 208.163 154.221 211.403 158.953C214.644 163.685 218.681 166.051 223.516 166.051ZM260.547 135.114V137.66C260.547 142.238 259.801 146.944 258.31 151.778C255.275 161.602 249.309 168.648 240.411 172.917C235.268 175.386 230.176 176.62 225.136 176.62H222.513C217.729 176.62 213.281 175.643 209.166 173.688C200.988 169.78 195.562 163.299 192.888 154.247C191.448 149.464 190.728 144.604 190.728 139.666V135.731C190.728 130.897 191.473 126.062 192.965 121.228C195.896 111.661 201.708 104.821 210.4 100.706C214.875 98.5459 219.452 97.4658 224.133 97.4658H227.99C232.413 97.4658 236.785 98.4173 241.105 100.32C249.746 104.126 255.558 110.915 258.541 120.688C259.878 125.008 260.547 129.817 260.547 135.114ZM281.686 175.309H279.757C275.437 175.309 273.276 173.868 273.276 170.988C273.276 170.783 276.979 165.408 284.386 154.864C291.843 144.269 295.572 138.149 295.572 136.503C295.572 134.857 292.255 129.277 285.62 119.762C283.769 117.087 281.3 114.053 278.214 110.658C275.179 107.212 273.662 104.846 273.662 103.561C273.662 100.629 277.34 99.1631 284.694 99.1631C290.043 99.1631 293.798 100.5 295.958 103.175C296.369 103.689 296.884 104.795 297.501 106.492C298.118 108.138 299.25 110.478 300.896 113.513C304.496 120.096 307.067 123.388 308.61 123.388C309.845 123.388 312.545 119.993 316.711 113.204C318.357 110.53 319.591 108.035 320.414 105.721C321.288 103.406 321.88 102.043 322.188 101.632C323.731 99.626 326.149 98.623 329.44 98.623C335.664 98.623 338.775 99.7288 338.775 101.94C338.775 103.226 335.201 108.421 328.052 117.524C320.903 126.628 317.328 132.517 317.328 135.191C317.328 137.814 321.134 144.166 328.746 154.247C331.266 157.59 333.915 160.625 336.692 163.351C339.521 166.076 340.936 168.211 340.936 169.754C340.936 172.634 336.667 174.1 328.129 174.151C323.86 174.151 320.774 172.943 318.871 170.525C318.511 170.062 317.894 168.854 317.02 166.899C316.197 164.945 315.194 162.939 314.011 160.882C309.382 152.91 306.45 148.924 305.216 148.924C303.673 148.924 300.69 152.601 296.267 159.956C294.981 162.116 293.824 164.585 292.795 167.362C291.818 170.088 291.226 171.605 291.021 171.914C289.375 174.177 286.263 175.309 281.686 175.309ZM368.323 66.6064H370.869C373.081 66.6064 374.984 67.2751 376.578 68.6123C378.173 69.9495 378.97 71.904 378.97 74.4756V76.4043C378.97 78.513 378.275 80.416 376.887 82.1133C375.498 83.7591 373.724 84.582 371.563 84.582L370.021 84.8135H367.475C366.857 84.6592 366.086 84.582 365.16 84.582C364.234 84.582 363.129 83.9648 361.843 82.7305C360.608 81.4447 359.991 80.0303 359.991 78.4873C359.888 78.0758 359.837 77.7673 359.837 77.5615L359.683 76.0186V75.6328L359.991 73.1641C359.991 71.9811 360.66 70.5924 361.997 68.998C363.334 67.4036 365.443 66.6064 368.323 66.6064ZM369.558 174.769H365.623C363.463 174.769 361.611 174.151 360.068 172.917C358.525 171.683 357.754 170.345 357.754 168.905C357.754 167.414 358.191 165.279 359.065 162.502C359.94 159.725 360.377 157.256 360.377 155.096L360.531 153.167L360.686 149.155V145.992L360.763 143.909V118.836C360.557 116.059 360.12 113.718 359.451 111.815L358.757 110.35C357.677 107.675 357.137 106.209 357.137 105.952V104.409C357.137 101.426 360.223 99.9346 366.395 99.9346H369.172C372.926 99.9346 375.215 101.4 376.038 104.332C376.244 105.104 376.347 109.604 376.347 117.833V135.346L376.501 140.438L376.81 146.378C376.81 152.498 378.07 157.693 380.59 161.962C381.618 163.711 382.133 165.665 382.133 167.825C382.133 169.934 380.924 171.631 378.507 172.917C376.09 174.151 373.106 174.769 369.558 174.769ZM418.238 164.276C418.238 168.7 415.821 170.911 410.986 170.911C404.352 170.911 401.034 167.722 401.034 161.345L401.497 158.722L402.269 156.176L402.963 153.553C403.683 150.364 404.043 146.326 404.043 141.44L404.274 119.839C404.274 110.838 404.3 106.209 404.352 105.952C404.814 103.895 406.589 102.866 409.675 102.866L424.333 104.409C425.979 104.409 428.55 103.869 432.048 102.789C435.597 101.658 439.454 101.092 443.62 101.092C447.786 101.092 452.775 102.738 458.587 106.029C460.901 107.315 462.264 107.958 462.676 107.958C464.579 107.958 467.845 106.698 472.474 104.178C477.154 101.658 481.603 100.397 485.82 100.397C495.387 100.397 501.893 104.718 505.339 113.358C507.139 117.833 508.168 123.928 508.425 131.643L508.579 138.123C508.682 143.061 508.785 146.584 508.888 148.692C509.042 150.801 509.608 153.373 510.585 156.407C511.562 159.39 512.051 161.833 512.051 163.736C512.051 165.639 511.228 167.362 509.582 168.905C507.936 170.397 505.853 171.143 503.333 171.143C499.116 171.143 496.673 169.728 496.004 166.899C495.85 166.334 495.721 165.022 495.618 162.965C495.567 160.856 495.515 159.442 495.464 158.722L494.924 153.398C493.484 136.426 492.198 126.448 491.066 123.465C488.906 117.447 484.895 114.438 479.031 114.438C474.299 114.438 470.982 116.496 469.079 120.61C466.662 125.805 465.453 135.449 465.453 149.541C465.453 151.598 465.582 153.553 465.839 155.404L466.302 158.104C466.868 161.088 467.15 162.862 467.15 163.428C467.15 166.154 466.096 168.468 463.987 170.371C461.93 172.274 458.896 173.226 454.884 173.226C450.872 173.226 448.352 172.557 447.323 171.22C446.346 169.882 445.857 168.571 445.857 167.285C445.857 165.999 446.115 164.019 446.629 161.345C447.195 158.619 447.503 156.716 447.555 155.636C447.658 154.504 447.709 149.155 447.709 139.589C447.709 129.971 447.143 123.465 446.012 120.07C444.417 115.339 441.28 112.973 436.6 112.973C433.102 112.973 429.939 114.233 427.11 116.753C424.282 119.273 422.353 121.948 421.324 124.776C419.267 130.331 418.238 143.498 418.238 164.276Z" fill="#5F2F05"/>
<path fill-rule="evenodd" clip-rule="evenodd" d="M557.33 28.976C553.659 30.573 553.723 32.6 557.741 42.125C562.054 52.349 563.677 53.881 567.633 51.469C570.837 49.516 570.764 47.605 567.164 39.103C562.473 28.024 561.596 27.121 557.33 28.976ZM635.863 29.801C635.139 30.569 634.547 31.345 634.547 31.528C634.547 31.71 633.229 35.028 631.617 38.902C627.972 47.665 627.88 49.725 631.047 51.595C634.03 53.358 636.678 51.956 638.441 47.682C639.136 45.996 640.654 42.375 641.814 39.634C643.029 36.76 643.922 34.064 643.922 33.267C643.922 28.863 638.817 26.668 635.863 29.801ZM591.969 59.663C537.652 65.347 505.113 122.267 528.441 170.789C558.882 234.105 651.645 228.608 673.912 162.167C691.689 109.12 647.506 53.851 591.969 59.663ZM608.18 71.428C641.209 76.165 666.188 104.298 666.188 136.76C666.188 191.174 607.409 222.27 561.695 192.041C541.326 178.571 529.559 151.872 533.197 127.376C538.419 92.205 573.024 66.385 608.18 71.428ZM629.749 94.101C628.095 95.086 626.648 97.657 625.941 100.867C625.119 104.603 621.601 121.659 618.73 135.828C615.6 151.27 615.009 153.388 612.802 157.047C600.264 177.836 576.039 175.208 568.396 152.229C560.283 127.832 580.676 104.09 605.251 109.323C616.253 111.665 618.707 100.483 607.789 97.759C568.851 88.044 538.656 136.522 563.272 169.229C576.485 186.784 603.771 188.338 615.602 172.21C617.049 170.237 616.955 170.234 618.415 172.304C620.818 175.713 625.234 177.836 630.808 178.263C643.012 179.197 657.394 167.197 656.733 156.633C656.299 149.697 647.775 148.019 645.349 154.392C643.002 160.557 641.092 162.984 637.008 164.989C631.106 167.887 626.734 165.257 626.734 158.809C626.734 157.238 629.534 142.239 631.426 133.68C632.043 130.887 632.816 127.195 633.144 125.477C633.472 123.758 634.73 117.605 635.94 111.805C637.15 106.004 638.229 100.452 638.34 99.467C638.865 94.776 633.864 91.653 629.749 94.101ZM696.663 102.683C686.741 105.561 685.297 106.749 686.461 111.074C687.499 114.929 689.483 115.034 700.367 111.81C709.856 108.999 710.719 108.413 710.719 104.782C710.719 99.609 708.438 99.268 696.663 102.683ZM688.536 160.622C685.048 162.173 685.599 168.201 689.356 169.59C692.491 170.749 705.721 174.5 706.673 174.5C711.089 174.5 712.491 167.939 708.591 165.528C707.407 164.796 693.768 160.7 691 160.245C690.351 160.139 689.242 160.308 688.536 160.622ZM631.967 222.198C628.311 223.229 627.674 225.814 629.797 231.005C635.778 245.628 636.067 246.041 640.016 245.624C644.571 245.144 644.841 241.531 640.998 232.487C636.559 222.04 635.759 221.128 631.967 222.198ZM562.738 222.647C560.745 223.606 554.219 239.167 554.732 241.736C555.409 245.118 559.989 246.885 562.455 244.715C563.69 243.627 570.095 228.537 570.091 226.722C570.084 223.321 566.019 221.069 562.738 222.647Z" fill="#5F2F05"/>
<path fill-rule="evenodd" clip-rule="evenodd" d="M596.356 13.261C593.875 14.457 593.738 15.26 593.609 29.371C593.478 43.671 593.628 44.775 595.933 46.416C597.729 47.695 600.964 47.326 602.64 45.65L603.883 44.408L604.004 30.45C604.139 15.051 604.074 14.577 601.676 13.337C600.421 12.688 597.628 12.648 596.356 13.261ZM521.371 40.704C518.869 41.792 517.785 45.361 519.153 48.006C519.947 49.542 534.203 65.423 535.835 66.59C538.302 68.354 541.594 67.34 542.916 64.409C544.201 61.56 543.033 59.741 531.379 46.44C525.722 39.984 524.56 39.318 521.371 40.704ZM671.575 40.886C669.991 42.133 656.826 57.413 655.588 59.442C654.11 61.867 655.09 65.399 657.618 66.755C660.195 68.137 662.714 67.157 665.829 63.558C666.993 62.214 670.381 58.369 673.357 55.014C679.216 48.41 680.07 47.034 679.662 44.86C678.945 41.036 674.292 38.749 671.575 40.886ZM496.777 67.499C494.984 68.647 494.039 71.265 494.663 73.349C495.386 75.762 513.365 89.755 516.37 90.242C519.886 90.813 522.653 88.369 522.336 84.971C522.102 82.456 521.382 81.521 517.503 78.697C515.66 77.356 511.618 74.371 508.52 72.064C500.656 66.208 499.497 65.757 496.777 67.499ZM695.246 67.716C690.136 71.174 677.565 80.968 676.808 82.081C673.381 87.117 679.078 92.52 684.261 89.148C688.058 86.679 700.444 77.362 702.027 75.784C706.859 70.97 700.905 63.886 695.246 67.716ZM597.73 70.876C598.429 70.963 599.571 70.963 600.27 70.876C600.968 70.79 600.396 70.719 599 70.719C597.604 70.719 597.032 70.79 597.73 70.876ZM591.383 84.938C555.332 90.015 535.299 123.109 545.72 160.373C546.514 163.209 547.053 165.64 546.919 165.774C546.571 166.121 542.707 162.798 538.95 158.92C535.105 154.953 534.979 154.985 536.657 159.497C545.023 181.999 563.095 197.597 586.497 202.513C592.329 203.739 605.496 204.045 610.523 203.073C629.746 199.355 644.977 189.628 655.238 174.518L656.884 172.094L647.375 176.97C642.146 179.651 636.109 182.635 633.961 183.599C631.813 184.564 629.085 185.798 627.899 186.342C599.839 199.213 564.429 190.379 562.878 170.12C562.813 169.264 562.209 167.824 561.403 166.605C539.823 133.939 570.534 88.326 607.757 97.76C613.138 99.123 616.192 103.496 614.048 106.767C613.676 107.335 613.566 107.679 613.803 107.533C614.356 107.191 614.436 106.672 612.913 113.31C611.343 120.153 611.892 119.457 608.57 118.811C590.681 115.329 576.578 126.625 576.596 144.422C576.613 161.74 590.999 171.264 605.936 163.848C612.651 160.514 614.588 156.271 618.728 135.828C620.316 127.986 622.309 118.253 623.158 114.198L624.7 106.825L623.971 103.266C621.248 89.973 608.108 82.583 591.383 84.938ZM646.266 90.32C646.994 91.072 647.679 91.688 647.786 91.688C647.893 91.688 647.385 91.072 646.656 90.32C645.927 89.568 645.243 88.953 645.136 88.953C645.028 88.953 645.537 89.568 646.266 90.32ZM550.743 91.785L548.805 93.836L550.855 91.897C552.761 90.096 553.085 89.734 552.794 89.734C552.732 89.734 551.809 90.657 550.743 91.785ZM608.375 130.483C608.375 130.987 606.478 139.857 604.821 147.1C601.84 160.131 587.041 155.481 589.186 142.188C590.088 136.594 592.901 133.058 598.177 130.888C600.784 129.816 608.375 129.514 608.375 130.483ZM692.371 132.422C688.821 134.218 688.791 140.038 692.323 141.864C694.24 142.855 722.103 142.759 723.976 141.755C727.271 139.988 727.597 135.142 724.581 132.769C723.272 131.739 694.336 131.427 692.371 132.422ZM566.703 141.688C566.703 143.084 566.774 143.655 566.861 142.957C566.947 142.259 566.947 141.116 566.861 140.418C566.774 139.72 566.703 140.291 566.703 141.688ZM514.82 184.396C510.17 187.081 495.967 197.768 495.05 199.272C493.105 202.461 495.91 207.307 499.703 207.311C501.534 207.313 502.668 206.633 509.722 201.302C513.17 198.695 517.155 195.737 518.576 194.729C525.331 189.936 521.843 180.341 514.82 184.396ZM590.704 183.761C591.19 183.854 591.893 183.851 592.266 183.753C592.64 183.655 592.242 183.579 591.383 183.583C590.523 183.587 590.218 183.667 590.704 183.761ZM678.049 184.234C675.237 185.949 675.011 190.282 677.606 192.719C678.866 193.902 693.512 204.984 695.567 206.309C698.65 208.297 703.339 206.089 703.808 202.43C704.181 199.518 703.185 198.495 692.265 190.564C681.603 182.82 680.889 182.502 678.049 184.234ZM655.229 192.762L653.883 194.227L655.348 192.88C656.153 192.14 656.813 191.481 656.813 191.416C656.813 191.117 656.482 191.398 655.229 192.762ZM536.695 207.482C534.666 208.399 520.7 223.361 519.274 226.145C517.277 230.043 519.65 234.266 523.837 234.266C525.72 234.266 527.275 233.262 529.664 230.505C543.181 214.903 543.844 213.985 543.379 211.505C542.753 208.168 539.504 206.213 536.695 207.482ZM658.18 207.522C657.32 207.83 656.588 208.085 656.551 208.088C655.062 208.221 654.498 213.159 655.74 215.195C656.805 216.94 670.648 232.891 671.795 233.694C673.986 235.229 677.959 234.073 679.281 231.516C681.025 228.145 679.689 226.017 668.134 213.758C661.953 207.199 660.908 206.545 658.18 207.522ZM595.761 228.387C593.687 230.208 593.531 231.328 593.531 244.389C593.531 257.34 593.548 257.443 595.941 259.456C598.428 261.55 602.54 260.303 603.933 257.032C604.872 254.829 604.678 232.617 603.702 230.465C602.219 227.2 598.286 226.17 595.761 228.387Z" fill="#F8A30A"/>
</svg>
