<svg width="633" height="170" viewBox="0 0 633 170" fill="none" xmlns="http://www.w3.org/2000/svg">
<g clip-path="url(#clip0_305_2)">
<path d="M147.867 59.4842C153.528 57.4114 159.037 55.7119 164.325 54.3983C152.04 22.5748 121.156 0 85 0C38.0558 0 0 38.0558 0 85C0 113.279 13.8094 138.332 35.0524 153.784C37.4778 147.91 40.9658 141.712 45.4013 135.37C12.9878 112.082 0.453189 72.7285 17.5683 44.429C35.7796 14.3169 80.6641 8.12317 117.821 30.5949C130.554 38.2958 140.728 48.3639 147.867 59.4842Z" fill="#ECAE8C"/>
<path d="M133.007 65.6332C127.554 57.1115 119.769 49.395 110.018 43.4972C81.6538 26.3432 47.3908 31.0713 33.489 54.0576C20.4288 75.6524 29.9855 105.679 54.7086 123.459C66.2656 110.059 81.6012 96.5101 99.6843 84.4066C110.828 76.948 122.081 70.6632 133.007 65.6332Z" fill="#F5DDD0"/>
<path d="M152.124 125.806C133.913 155.918 89.0283 162.112 51.8717 139.64C49.6351 138.288 47.4774 136.862 45.4013 135.37C40.9658 141.712 37.4778 147.91 35.0525 153.784C49.0741 163.984 66.3345 170 85 170C131.944 170 170 131.944 170 85C170 74.2121 167.99 63.8935 164.325 54.3983C159.037 55.7119 153.528 57.4114 147.867 59.4842C161.561 80.8134 164.095 106.013 152.124 125.806Z" fill="#3D3D42"/>
<path d="M54.7086 123.459C66.2656 110.059 81.6011 96.5101 99.6843 84.4066C110.828 76.948 122.081 70.6633 133.007 65.6332C143.414 81.8973 145.326 101.094 136.203 116.178C122.302 139.164 88.0387 143.892 59.6749 126.738C57.9578 125.7 56.3017 124.605 54.7086 123.459Z" fill="#ECAE8C"/>
<path d="M241 119.432C241 112.52 239.379 107.187 236.136 103.432C232.893 99.592 228.669 97.672 223.464 97.672C220.563 97.672 218.259 97.8 216.552 98.056C214.931 98.312 213.651 98.6107 212.712 98.952V136.456C213.907 137.565 215.656 138.589 217.96 139.528C220.264 140.467 222.653 140.936 225.128 140.936C227.944 140.936 230.333 140.381 232.296 139.272C234.344 138.163 236.008 136.669 237.288 134.792C238.568 132.829 239.507 130.568 240.104 128.008C240.701 125.363 241 122.504 241 119.432ZM251.88 119.432C251.88 123.955 251.283 128.136 250.088 131.976C248.979 135.731 247.315 138.973 245.096 141.704C242.963 144.435 240.317 146.568 237.16 148.104C234.003 149.64 230.419 150.408 226.408 150.408C223.251 150.408 220.477 150.024 218.088 149.256C215.699 148.488 213.907 147.635 212.712 146.696V170.12H202.088V91.4C204.392 90.7173 207.336 90.0347 210.92 89.352C214.589 88.6693 218.771 88.328 223.464 88.328C227.731 88.328 231.613 89.0533 235.112 90.504C238.611 91.9547 241.597 94.0453 244.072 96.776C246.547 99.4213 248.467 102.664 249.832 106.504C251.197 110.344 251.88 114.653 251.88 119.432ZM270.696 149V92.808C279.4 89.8213 288.189 88.328 297.064 88.328C299.795 88.328 302.397 88.456 304.872 88.712C307.347 88.8827 310.077 89.3093 313.064 89.992L311.144 99.336C308.413 98.568 305.981 98.0987 303.848 97.928C301.8 97.672 299.539 97.544 297.064 97.544C291.859 97.544 286.568 98.2693 281.192 99.72V149H270.696ZM379.88 119.304C379.88 123.997 379.197 128.264 377.832 132.104C376.552 135.859 374.717 139.101 372.328 141.832C369.939 144.563 367.08 146.696 363.752 148.232C360.424 149.683 356.797 150.408 352.872 150.408C349.032 150.408 345.448 149.683 342.12 148.232C338.877 146.696 336.061 144.563 333.672 141.832C331.283 139.101 329.405 135.859 328.04 132.104C326.76 128.264 326.12 123.997 326.12 119.304C326.12 114.611 326.76 110.344 328.04 106.504C329.405 102.664 331.283 99.4213 333.672 96.776C336.061 94.0453 338.877 91.9547 342.12 90.504C345.448 88.968 349.032 88.2 352.872 88.2C356.797 88.2 360.424 88.968 363.752 90.504C367.08 91.9547 369.939 94.0453 372.328 96.776C374.717 99.4213 376.552 102.664 377.832 106.504C379.197 110.344 379.88 114.611 379.88 119.304ZM369 119.304C369 112.563 367.549 107.272 364.648 103.432C361.747 99.5067 357.821 97.544 352.872 97.544C348.008 97.544 344.125 99.5067 341.224 103.432C338.408 107.272 337 112.563 337 119.304C337 125.96 338.408 131.251 341.224 135.176C344.125 139.016 348.008 140.936 352.872 140.936C357.821 140.936 361.747 139.016 364.648 135.176C367.549 131.251 369 125.96 369 119.304ZM433.64 149C432.787 147.293 431.72 145.416 430.44 143.368C429.245 141.32 427.923 139.229 426.472 137.096C425.021 134.877 423.485 132.701 421.864 130.568C420.328 128.435 418.792 126.429 417.256 124.552C415.72 126.515 414.099 128.563 412.392 130.696C410.685 132.829 409.021 135.005 407.4 137.224C405.864 139.357 404.413 141.448 403.048 143.496C401.683 145.544 400.531 147.379 399.592 149H388.712C391.528 143.88 394.941 138.632 398.952 133.256C403.048 127.795 407.059 122.632 410.984 117.768L389.608 89.608H401.512L417.512 110.344L432.232 89.608H443.496L423.912 117.128C427.752 122.163 431.592 127.411 435.432 132.872C439.357 138.333 442.685 143.709 445.416 149H433.64ZM475.752 80.392C473.533 80.392 471.613 79.624 469.992 78.088C468.371 76.552 467.56 74.4613 467.56 71.816C467.56 69.1707 468.371 67.08 469.992 65.544C471.613 64.008 473.533 63.24 475.752 63.24C478.056 63.24 479.976 64.008 481.512 65.544C483.133 67.08 483.944 69.1707 483.944 71.816C483.944 74.4613 483.133 76.552 481.512 78.088C479.976 79.624 478.056 80.392 475.752 80.392ZM473.064 98.44H455.912V89.608H483.56V126.088C483.56 131.976 484.371 135.944 485.992 137.992C487.613 139.955 490.045 140.936 493.288 140.936C495.763 140.936 498.024 140.637 500.072 140.04C502.205 139.443 503.869 138.803 505.064 138.12L506.6 147.08C506.088 147.336 505.363 147.677 504.424 148.104C503.485 148.445 502.376 148.787 501.096 149.128C499.901 149.469 498.536 149.768 497 150.024C495.549 150.28 494.013 150.408 492.392 150.408C488.637 150.408 485.523 149.896 483.048 148.872C480.573 147.848 478.568 146.312 477.032 144.264C475.581 142.216 474.557 139.699 473.96 136.712C473.363 133.64 473.064 130.099 473.064 126.088V98.44ZM518.248 91.272C523.368 89.3093 528.189 88.328 532.712 88.328C535.187 88.328 537.491 88.712 539.624 89.48C541.843 90.1627 543.72 91.272 545.256 92.808C548.925 89.8213 552.851 88.328 557.032 88.328C559.08 88.328 561 88.712 562.792 89.48C564.669 90.248 566.291 91.4 567.656 92.936C569.107 94.472 570.259 96.392 571.112 98.696C571.965 101 572.392 103.688 572.392 106.76V149H562.792V106.504C562.792 103.432 562.109 101.085 560.744 99.464C559.379 97.8427 557.672 97.032 555.624 97.032C554.6 97.032 553.533 97.288 552.424 97.8C551.315 98.312 550.291 99.1227 549.352 100.232C549.864 102.195 550.12 104.371 550.12 106.76V126.088H540.52V106.632C540.52 103.645 540.051 101.299 539.112 99.592C538.173 97.8853 536.339 97.032 533.608 97.032C531.901 97.032 529.981 97.416 527.848 98.184V149H518.248V91.272ZM609.64 141.448C612.285 141.448 614.632 141.363 616.68 141.192C618.813 141.021 620.563 140.808 621.928 140.552V122.888C620.563 122.461 618.899 122.12 616.936 121.864C615.059 121.608 613.053 121.48 610.92 121.48C608.957 121.48 607.037 121.651 605.16 121.992C603.283 122.248 601.619 122.76 600.168 123.528C598.717 124.296 597.523 125.32 596.584 126.6C595.645 127.795 595.176 129.331 595.176 131.208C595.176 135.048 596.456 137.736 599.016 139.272C601.661 140.723 605.203 141.448 609.64 141.448ZM608.616 88.2C613.053 88.2 616.765 88.7547 619.752 89.864C622.824 90.9733 625.299 92.5093 627.176 94.472C629.053 96.4347 630.376 98.824 631.144 101.64C631.912 104.456 632.296 107.528 632.296 110.856V147.976C629.821 148.403 626.536 148.915 622.44 149.512C618.429 150.109 614.291 150.408 610.024 150.408C606.781 150.408 603.624 150.109 600.552 149.512C597.48 149 594.749 148.061 592.36 146.696C589.971 145.245 588.051 143.283 586.6 140.808C585.149 138.333 584.424 135.176 584.424 131.336C584.424 127.923 585.149 125.064 586.6 122.76C588.136 120.371 590.056 118.451 592.36 117C594.749 115.549 597.437 114.525 600.424 113.928C603.496 113.245 606.568 112.904 609.64 112.904C613.821 112.904 617.917 113.373 621.928 114.312V111.368C621.928 109.576 621.715 107.869 621.288 106.248C620.947 104.541 620.221 103.005 619.112 101.64C618.088 100.275 616.637 99.208 614.76 98.44C612.968 97.5867 610.621 97.16 607.72 97.16C604.051 97.16 600.851 97.416 598.12 97.928C595.389 98.44 593.299 98.952 591.848 99.464L590.568 90.76C592.019 90.0773 594.408 89.48 597.736 88.968C601.149 88.456 604.776 88.2 608.616 88.2Z" fill="#3D3D42"/>
</g>
<defs>
<clipPath id="clip0_305_2">
<rect width="633" height="170" fill="white"/>
</clipPath>
</defs>
</svg>
