<svg width="280" height="280" viewBox="0 0 280 280" fill="none" xmlns="http://www.w3.org/2000/svg">
<circle cx="140" cy="140" r="140" fill="#FBFBE4"/>
<path fill-rule="evenodd" clip-rule="evenodd" d="M98.33 31.976C94.659 33.573 94.723 35.6 98.741 45.125C103.054 55.349 104.677 56.881 108.633 54.469C111.837 52.516 111.764 50.605 108.164 42.103C103.473 31.024 102.596 30.121 98.33 31.976ZM176.863 32.801C176.139 33.569 175.547 34.345 175.547 34.528C175.547 34.71 174.229 38.028 172.617 41.902C168.972 50.665 168.88 52.725 172.047 54.595C175.03 56.358 177.678 54.956 179.441 50.682C180.136 48.996 181.654 45.375 182.814 42.634C184.029 39.76 184.922 37.064 184.922 36.267C184.922 31.863 179.817 29.668 176.863 32.801ZM132.969 62.663C78.652 68.347 46.113 125.267 69.441 173.789C99.882 237.105 192.645 231.608 214.912 165.167C232.689 112.12 188.506 56.851 132.969 62.663ZM149.18 74.428C182.209 79.165 207.188 107.298 207.188 139.76C207.188 194.174 148.409 225.27 102.695 195.041C82.326 181.571 70.559 154.872 74.197 130.376C79.419 95.205 114.024 69.385 149.18 74.428ZM170.749 97.101C169.095 98.086 167.648 100.657 166.941 103.867C166.119 107.603 162.601 124.659 159.73 138.828C156.6 154.27 156.009 156.388 153.802 160.047C141.264 180.836 117.039 178.208 109.396 155.229C101.283 130.832 121.676 107.09 146.251 112.323C157.253 114.665 159.707 103.483 148.789 100.759C109.851 91.044 79.656 139.522 104.272 172.229C117.485 189.784 144.771 191.338 156.602 175.21C158.049 173.237 157.955 173.234 159.415 175.304C161.818 178.713 166.234 180.836 171.808 181.263C184.012 182.197 198.394 170.197 197.733 159.633C197.299 152.697 188.775 151.019 186.349 157.392C184.002 163.557 182.092 165.984 178.008 167.989C172.106 170.887 167.734 168.257 167.734 161.809C167.734 160.238 170.534 145.239 172.426 136.68C173.043 133.887 173.816 130.195 174.144 128.477C174.472 126.758 175.73 120.605 176.94 114.805C178.15 109.004 179.229 103.452 179.34 102.467C179.865 97.776 174.864 94.653 170.749 97.101ZM30.916 103.624C28.182 104.991 27.611 108.722 29.768 111.136C31.518 113.095 48.168 117.919 50.432 117.123C52.755 116.306 53.965 112.768 52.735 110.39C51.788 108.559 50.872 108.07 45.664 106.62C42.871 105.842 39.531 104.862 38.242 104.442C34.154 103.111 32.347 102.91 30.916 103.624ZM237.663 105.683C227.741 108.561 226.297 109.749 227.461 114.074C228.499 117.929 230.483 118.034 241.367 114.81C250.856 111.999 251.719 111.413 251.719 107.782C251.719 102.609 249.438 102.268 237.663 105.683ZM39.875 165.394C31.06 168.013 29.931 168.549 28.925 170.594C27.617 173.252 29.668 177.512 32.246 177.493C33.864 177.482 49.104 173.04 51.213 171.966C53.046 171.032 53.826 167.578 52.698 165.395C51.163 162.427 49.86 162.427 39.875 165.394ZM229.536 163.622C226.048 165.173 226.599 171.201 230.356 172.59C233.491 173.749 246.721 177.5 247.673 177.5C252.089 177.5 253.491 170.939 249.591 168.528C248.407 167.796 234.768 163.7 232 163.245C231.351 163.139 230.242 163.308 229.536 163.622ZM172.967 225.198C169.311 226.229 168.674 228.814 170.797 234.005C176.778 248.628 177.067 249.041 181.016 248.624C185.571 248.144 185.841 244.531 181.998 235.487C177.559 225.04 176.759 224.128 172.967 225.198ZM103.738 225.647C101.745 226.606 95.219 242.167 95.732 244.736C96.409 248.118 100.989 249.885 103.455 247.715C104.69 246.627 111.095 231.537 111.091 229.722C111.084 226.321 107.019 224.069 103.738 225.647Z" fill="#5F2F05"/>
<path fill-rule="evenodd" clip-rule="evenodd" d="M137.356 16.261C134.875 17.457 134.738 18.26 134.609 32.371C134.478 46.671 134.628 47.775 136.933 49.416C138.729 50.695 141.964 50.326 143.64 48.65L144.883 47.408L145.004 33.45C145.139 18.051 145.074 17.577 142.676 16.337C141.421 15.688 138.628 15.648 137.356 16.261ZM62.371 43.704C59.869 44.792 58.785 48.361 60.153 51.006C60.947 52.542 75.203 68.423 76.835 69.59C79.302 71.354 82.594 70.34 83.916 67.409C85.201 64.56 84.033 62.741 72.379 49.44C66.722 42.984 65.56 42.318 62.371 43.704ZM212.575 43.886C210.991 45.133 197.826 60.413 196.588 62.442C195.11 64.867 196.09 68.399 198.618 69.755C201.195 71.137 203.714 70.157 206.829 66.558C207.993 65.214 211.381 61.369 214.357 58.014C220.216 51.41 221.07 50.034 220.662 47.86C219.945 44.036 215.292 41.749 212.575 43.886ZM37.777 70.499C35.984 71.647 35.039 74.265 35.663 76.349C36.386 78.762 54.365 92.755 57.37 93.242C60.886 93.813 63.653 91.369 63.336 87.971C63.102 85.456 62.382 84.521 58.503 81.697C56.66 80.356 52.618 77.371 49.52 75.064C41.656 69.208 40.497 68.757 37.777 70.499ZM236.246 70.716C231.136 74.174 218.565 83.968 217.808 85.081C214.381 90.117 220.078 95.52 225.261 92.148C229.058 89.679 241.444 80.362 243.027 78.784C247.859 73.97 241.905 66.886 236.246 70.716ZM138.73 73.876C139.429 73.963 140.571 73.963 141.27 73.876C141.968 73.79 141.396 73.719 140 73.719C138.604 73.719 138.032 73.79 138.73 73.876ZM132.383 87.938C96.332 93.015 76.299 126.109 86.72 163.373C87.514 166.209 88.053 168.64 87.919 168.774C87.571 169.121 83.707 165.798 79.95 161.92C76.105 157.953 75.979 157.985 77.657 162.497C86.023 184.999 104.095 200.597 127.497 205.513C133.329 206.739 146.496 207.045 151.523 206.073C170.746 202.355 185.977 192.628 196.238 177.518L197.884 175.094L188.375 179.97C183.146 182.651 177.109 185.635 174.961 186.599C172.813 187.564 170.085 188.798 168.899 189.342C140.839 202.213 105.429 193.379 103.878 173.12C103.813 172.264 103.209 170.824 102.403 169.605C80.823 136.939 111.534 91.326 148.757 100.76C154.138 102.123 157.192 106.496 155.048 109.767C154.676 110.335 154.566 110.679 154.803 110.533C155.356 110.191 155.436 109.672 153.913 116.31C152.343 123.153 152.892 122.457 149.57 121.811C131.681 118.329 117.578 129.625 117.596 147.422C117.613 164.74 131.999 174.264 146.936 166.848C153.651 163.514 155.588 159.271 159.728 138.828C161.316 130.986 163.309 121.253 164.158 117.198L165.7 109.825L164.971 106.266C162.248 92.973 149.108 85.583 132.383 87.938ZM187.266 93.32C187.994 94.072 188.679 94.688 188.786 94.688C188.893 94.688 188.385 94.072 187.656 93.32C186.927 92.568 186.243 91.953 186.136 91.953C186.028 91.953 186.537 92.568 187.266 93.32ZM91.743 94.785L89.805 96.836L91.855 94.897C93.761 93.096 94.085 92.734 93.794 92.734C93.732 92.734 92.809 93.657 91.743 94.785ZM149.375 133.483C149.375 133.987 147.478 142.857 145.821 150.1C142.84 163.131 128.041 158.481 130.186 145.188C131.088 139.594 133.901 136.058 139.177 133.888C141.784 132.816 149.375 132.514 149.375 133.483ZM14.694 135.532C12.241 137.249 11.881 141.509 13.993 143.814L15.33 145.273L30.497 145.377C45.093 145.477 45.712 145.451 46.937 144.697C50.562 142.466 50.549 137.903 46.912 135.686C45.183 134.632 16.177 134.493 14.694 135.532ZM233.371 135.422C229.821 137.218 229.791 143.038 233.323 144.864C235.24 145.855 263.103 145.759 264.976 144.755C268.271 142.988 268.597 138.142 265.581 135.769C264.272 134.739 235.336 134.427 233.371 135.422ZM107.703 144.688C107.703 146.084 107.774 146.655 107.861 145.957C107.947 145.259 107.947 144.116 107.861 143.418C107.774 142.72 107.703 143.291 107.703 144.688ZM55.82 187.396C51.17 190.081 36.967 200.768 36.05 202.272C34.105 205.461 36.91 210.307 40.703 210.311C42.534 210.313 43.668 209.633 50.722 204.302C54.17 201.695 58.155 198.737 59.576 197.729C66.331 192.936 62.843 183.341 55.82 187.396ZM131.704 186.761C132.19 186.854 132.893 186.851 133.266 186.753C133.64 186.655 133.242 186.579 132.383 186.583C131.523 186.587 131.218 186.667 131.704 186.761ZM219.049 187.234C216.237 188.949 216.011 193.282 218.606 195.719C219.866 196.902 234.512 207.984 236.567 209.309C239.65 211.297 244.339 209.089 244.808 205.43C245.181 202.518 244.185 201.495 233.265 193.564C222.603 185.82 221.889 185.502 219.049 187.234ZM196.229 195.762L194.883 197.227L196.348 195.88C197.153 195.14 197.813 194.481 197.813 194.416C197.813 194.117 197.482 194.398 196.229 195.762ZM77.695 210.482C75.666 211.399 61.7 226.361 60.274 229.145C58.277 233.043 60.65 237.266 64.837 237.266C66.72 237.266 68.275 236.262 70.664 233.505C84.181 217.903 84.844 216.985 84.379 214.505C83.753 211.168 80.504 209.213 77.695 210.482ZM199.18 210.522C198.32 210.83 197.588 211.085 197.551 211.088C196.062 211.221 195.498 216.159 196.74 218.195C197.805 219.94 211.648 235.891 212.795 236.694C214.986 238.229 218.959 237.073 220.281 234.516C222.025 231.145 220.689 229.017 209.134 216.758C202.953 210.199 201.908 209.545 199.18 210.522ZM136.761 231.387C134.687 233.208 134.531 234.328 134.531 247.389C134.531 260.34 134.548 260.443 136.941 262.456C139.428 264.55 143.54 263.303 144.933 260.032C145.872 257.829 145.678 235.617 144.702 233.465C143.219 230.2 139.286 229.17 136.761 231.387Z" fill="#F8A30A"/>
</svg>
